
<svg width="46px" height="16px" viewBox="0 0 46 16" version="1.1" xmlns="http://www.w3.org/2000/svg" xmlns:xlink="http://www.w3.org/1999/xlink">
    <!-- Generator: Sketch 49 (51002) - http://www.bohemiancoding.com/sketch -->
    <desc>Created with Sketch.</desc>
    <defs></defs>
    <g stroke="none" stroke-width="1" fill="none" fill-rule="evenodd">
        <g transform="translate(-1020.000000, -744.000000)" fill="#FFFFFF">
            <g transform="translate(827.000000, 588.000000)">
                <path d="M196.449287,164.154555 L209.452911,157.919091 C213.553169,155.952945 218.323974,155.952945 222.424232,157.919091 L235.427856,164.154555 C237.535924,165.165409 238.877144,167.295995 238.877144,169.633895 L238.877144,169.633895 C238.877144,170.9399 237.818417,171.998626 236.512412,171.998626 C236.145461,171.998626 235.783546,171.913228 235.455302,171.74919 L220.408889,164.229807 C217.594608,162.823382 214.282536,162.823382 211.468255,164.229807 L196.421842,171.74919 C195.253596,172.333016 193.833262,171.85925 193.249436,170.691005 C193.085398,170.362761 193,170.000845 193,169.633895 L193,169.633895 C193,167.295995 194.34122,165.165409 196.449287,164.154555 Z"></path>
            </g>
        </g>
    </g>
</svg>