<svg id="Layer_1" data-name="Layer 1" xmlns="http://www.w3.org/2000/svg" viewBox="0 0 1411.72 490.78"><defs><style>.cls-1{fill:#fff;}.cls-2{fill:#d42a31;}.cls-3{fill:#fafdfd;}.cls-4{fill:#40a1cb;}.cls-5{fill:#fdfefd;}.cls-6{fill:#f9fcfd;}.cls-7{fill:#fafdff;}.cls-8{fill:#42a1c9;}</style></defs><title>logo-white-try</title><path class="cls-1" d="M235.52,310.06h44.1c16.83,0,33.66.11,50.49-.08,3.9,0,5.59.67,6.48,5,11,53.57,22.34,107.07,33.58,160.59.37,1.77,1.41,3.38,1.68,5.42,4-13,8.16-25.91,12.13-38.89Q403.63,378,423.13,313.78c.85-2.8,2-3.81,5.1-3.79q46,.2,92,0c3.57,0,4.81,1.26,5.75,4.33q25,81.66,50.12,163.29a5.15,5.15,0,0,0,1.68,2.8c4.15-19.43,8.3-38.64,12.35-57.87q8.84-42,17.57-84c1.76-8.41,3.81-16.76,5.25-25.22.51-3,1.81-3.3,4.25-3.29q46,.07,92,0c3.12,0,4.3.19,3.33,4.08-10.68,43.1-21,86.28-31.6,129.41C667,500.27,653,557,639.23,613.78c-.86,3.55-2.23,4.37-5.62,4.35q-47.24-.19-94.49,0c-3.75,0-5-1.33-6-4.59Q504.6,520.76,475.91,428c-.32-1-.79-2-1.4-3.62-6.21,20.06-12.3,39.58-18.3,59.12Q436.06,549.06,416,614.64c-.79,2.59-2,3.5-4.88,3.49q-48-.18-96,0c-3.54,0-4.33-1.51-5-4.44q-23.43-95.7-47-191.37Q249.42,367,235.68,311.72A12.77,12.77,0,0,1,235.52,310.06Z" transform="translate(-235.52 -299.02)"/><path class="cls-1" d="M1386.15,463.55c0-49.49.06-99-.1-148.46,0-4.23,1.13-5.12,5.22-5.12q125.46.19,250.93,0c3.67,0,5.11.59,5.05,4.78q-.4,28.24,0,56.48c0,4-1.08,4.91-4.95,4.9-48.32-.13-96.64,0-145-.18-4,0-5.38.71-5.3,5.05.3,14.82.26,29.66,0,44.48-.06,3.78,1,4.65,4.68,4.64,40.82-.14,81.64,0,122.46-.2,4.44,0,5.53,1.12,5.46,5.48q-.4,25.74,0,51.48c.06,4.16-1,5.26-5.19,5.24-40.65-.16-81.31,0-122-.2-4.28,0-5.5.87-5.48,5.38.21,38.49,0,77,.24,115.47,0,4.58-1.33,5.37-5.54,5.34q-47.74-.27-95.47,0c-4.12,0-5.22-.95-5.2-5.15C1386.2,563.18,1386.15,513.36,1386.15,463.55Z" transform="translate(-235.52 -299.02)"/><path class="cls-1" d="M1337,618c-2.83,0-5.66.1-8.49.1q-128.23,0-256.46.11c-4.66,0-5.69-1.29-5.69-5.78q.19-148.48,0-297c0-4.4,1.07-5.51,5.49-5.49q47.74.31,95.48,0c4,0,4.85,1.17,4.84,5-.11,73.82,0,147.64-.17,221.47,0,4.36.84,5.8,5.58,5.78,51.16-.2,102.32-.12,153.48-.11,2,0,4,.1,6,.15Q1337.07,580.08,1337,618Z" transform="translate(-235.52 -299.02)"/><path class="cls-2" d="M720,471.77c-2.47-8.47-2-17-.5-25.54,1-5.52,1.17-11.11,2.13-16.67a150.45,150.45,0,0,1,15.1-44.19c8.39-16.09,19-30.82,32.55-43.08,17-15.4,36.06-27.42,58.12-34.53,13.22-4.26,26.65-6.45,40.41-8.18,11.14-1.4,21.85.18,32.59,1.11,12.63,1.09,25,4.81,36.87,9.61a163,163,0,0,1,45.77,27.9,159.93,159.93,0,0,1,40.18,53.31,151.33,151.33,0,0,1,11.29,34.32,179.22,179.22,0,0,1,3.69,36.44c0,7.7-1.2,15.19-2.54,22.7-8-3.63-15.82-7.47-23.88-10.85-11.88-5-23.89-9.63-35.85-14.41-3.14-1.25-6-2.11-1.11-5.42a24.39,24.39,0,0,0,9.14-11.2,53.1,53.1,0,0,0-6.72,2c-12.27,5.42-22.84,2.43-33.31-5.25-6.31-4.63-10.5-11.57-18.19-14.76-10.57-4.38-20.81-9.3-32.74-7.87a24.41,24.41,0,0,1-12.71-1.48c-10.76-4.55-22-8-32.17-13.84-3.6-2.08-7.45-4.6-10-8.3-.65-.94-1.7-2.31-.24-3,4.34-2,.89-3.17-.48-4a21.87,21.87,0,0,1-9.17-10.16c-.68-1.45-1.78-3.23-3.11-3.75-6.66-2.59-10.34-8.6-15.48-12.9-2.86-2.39-6-1.67-7.31,1.69-.78,2,1.67,3.18,1.19,5.08-4-1.1-5.25-.5-4.14,2,4.34,9.76,7,20,4.64,30.43-1.11,5,2.53,9.78-.41,14.47,0,0,1.08.6,1,.73-.67,2.2,1.92,3.13,1.76,5.59-.24,3.67,3.88,6.92,2,11.2-.05.12.43.65.51.61,1.78-.73,2.74,0,2.29,1.73-.37,1.42-2,1.54-3.29,1.7-11.36,1.41-22.34,4.39-33.21,7.92C754.79,449.4,736.88,459.57,720,471.77Z" transform="translate(-235.52 -299.02)"/><path class="cls-3" d="M720,471.77c16.85-12.2,34.76-22.37,54.66-28.83,10.87-3.53,21.84-6.51,33.21-7.92,1.32-.16,2.92-.28,3.29-1.7.45-1.75-.51-2.45-2.29-1.73-.08,0-.56-.5-.51-.61,1.89-4.28-2.23-7.53-2-11.2.16-2.46-2.43-3.39-1.76-5.59,0-.13-1-.72-1-.73,2.95-4.69-.7-9.46.41-14.47,2.33-10.47-.3-20.67-4.64-30.43-1.11-2.49.15-3.09,4.14-2,.48-1.9-2-3.05-1.19-5.08,1.3-3.36,4.45-4.08,7.31-1.69,5.14,4.3,8.83,10.31,15.48,12.9,1.34.52,2.44,2.3,3.11,3.75a21.87,21.87,0,0,0,9.17,10.16c1.37.78,4.82,2,.48,4-1.45.67-.41,2,.24,3,2.55,3.69,6.41,6.22,10,8.3,10.12,5.85,21.41,9.29,32.17,13.84A24.41,24.41,0,0,0,893,417.15c11.93-1.43,22.17,3.49,32.74,7.87,7.69,3.19,11.87,10.13,18.19,14.76,10.47,7.69,21,10.67,33.31,5.25a53.1,53.1,0,0,1,6.72-2,24.39,24.39,0,0,1-9.14,11.2c-4.87,3.32-2,4.17,1.11,5.42,12,4.78,24,9.43,35.85,14.41,8.06,3.38,15.93,7.21,23.88,10.85l-.66,4a23.74,23.74,0,0,1-3.31-1c-17.36-8.26-35.35-15.05-52.91-22.8-9.3-4.1-18.79-4.4-28.22-4.57-4.52-.08-7.75-.54-11.11-3.31-2.84-2.35-3.9-2.47-7.57-3.06,1.87,5.67,4.39,10.68,9.94,13.18,2.87,1.29,3.91,3.32,4.26,6.08,1,8.2,3,16,9.68,21.69a3.29,3.29,0,0,1,1.31,3.07c-1,6.6,3.93,8.45,8.47,9.55,19.78,4.79,39.67,9.17,59.52,13.7-2,4.76-3.77,9.59-6.93,13.75a11.18,11.18,0,0,0-1.39-.56,790.88,790.88,0,0,0-101.49-19.52,446.75,446.75,0,0,0-86.7-2.11c-26,1.93-51.19,7.12-75.53,16.57-4.91,1.91-9.4,5-14.81,5.58l-6.92-14.79a156,156,0,0,1,35.58-18.64c23-8.59,47.51-7.92,71.16-12.44,3.15-.6,4.42-1.32,4.34-4.35a22.37,22.37,0,0,1,.11-4c1.93-12.62-10-19.12-13.06-29.53-.06-.21-1,0-1.38-.29-4.18-3.22-9.52-5.35-11.57-10.66-.89-2.31-1.76-1.79-3.57-1.6-23.39,2.51-45.16,10-65.9,20.86-9.43,5-17.73,11.6-26.77,17.12C720.4,475.13,718.63,473.51,720,471.77ZM914.1,497.38c1-6.14-.91-10.37-6.53-13.51-9.77-5.47-17.63-13-21.61-23.85a8.61,8.61,0,0,0-2.22-2.6c-3.5-3.54-6.55-1.8-10.42,0-3,1.37-4.18,2.73-4.22,5.63a71.77,71.77,0,0,0,2.52,18.17c.68,2.79.87,5.28-.93,8-2.64,4-2,4.68,2.95,4.89,6.29.28,12.85-.29,18.65,2.35a15.16,15.16,0,0,0,9.58,1.37A42.82,42.82,0,0,1,914.1,497.38Zm8.05-7.75c0,2-.09,4,0,6,.22,3.77,1.54,5.77,6.08,5.64,5.41-.15,10.85,1,16.28,1.53,1.45.15,3.2.86,4.21-.45s-.15-3-.94-4.09a204.18,204.18,0,0,1-11.52-18.51,12.1,12.1,0,0,0-8.35-5.7c-2.57-.57-5.09-1.45-7.69-1.81-1.24-.17-2.51-1.78-3.59-.64s-.43,2.8.28,4.17c.53,1,.78,2.52,1.62,3C923,481.39,922.32,485.57,922.15,489.64Zm-60.67-3.87c-.45-7.45-3.18-14.48-4.38-21.81a1.46,1.46,0,0,0-2.12-1.33c-1.33.43-3.16,0-3.71,1.91a36.84,36.84,0,0,0-1,3.84c-1.21,7.1,1.67,14.17.24,21.29a1.36,1.36,0,0,0,.66,1.15c2.88.58,5.86,2.25,8.7.91C862.17,490.63,860.94,487.83,861.48,485.77Z" transform="translate(-235.52 -299.02)"/><path class="cls-4" d="M738.21,535.14c5.41-.57,9.9-3.67,14.81-5.58,24.33-9.44,49.57-14.63,75.53-16.57a446.75,446.75,0,0,1,86.7,2.11,790.88,790.88,0,0,1,101.49,19.52,11.18,11.18,0,0,1,1.39.56C1013,546,1006,555.4,998,564.2c-5-.4-10-.64-14.9-1.22-21-2.45-42.09-3.61-63.17-4.7-26.12-1.34-52.29-2-78.42-.12-14.07,1-28.1,2.44-42.07,4.66-11.49,1.83-22.63,5-34,7.41-9.13-7-15.16-16.54-21.54-25.8C741.85,541.45,740.1,538.24,738.21,535.14Z" transform="translate(-235.52 -299.02)"/><path class="cls-5" d="M964.06,706.11l40.76,50.41,1.46-.46q0-25.52,0-51l25.72.09c0,26.49,0,53,.2,79.46,0,2.95-1,3.61-3.72,3.54-6.49-.17-13-.23-19.49,0-3.35.14-5.43-1-7.51-3.61C989,769,976.27,753.61,963.63,738.18a4.08,4.08,0,0,0-.84-.59c-1.28,1.24-.6,2.81-.6,4.17-.06,14.16-.13,28.32,0,42.48,0,3.09-.84,4-3.92,3.9-6.16-.23-12.33-.19-18.49,0-2.71.08-3.74-.58-3.72-3.53.15-26.49.15-53,.19-79.46,6.07,0,12.15-.16,18.22,0C957.68,705.24,961,704.16,964.06,706.11Z" transform="translate(-235.52 -299.02)"/><path class="cls-4" d="M720.22,476.83c9-5.52,17.34-12.16,26.77-17.12,20.74-10.9,42.51-18.34,65.9-20.86,1.82-.2,2.68-.71,3.57,1.6,2.05,5.31,7.39,7.44,11.57,10.66.34.26,1.31.08,1.38.29,3.09,10.4,15,16.91,13.06,29.53a22.37,22.37,0,0,0-.11,4c.08,3-1.18,3.75-4.34,4.35-23.65,4.52-48.17,3.85-71.16,12.44a156,156,0,0,0-35.58,18.64C725.58,506.35,721.42,492,720.22,476.83Z" transform="translate(-235.52 -299.02)"/><path class="cls-6" d="M565.13,787.67c-8.77.91-17.56.18-26.34.41-3.43.09-2.4-2.54-2.41-4.26-.07-14.27-.05-28.55,0-42.82q0-17.92.08-35.84l63.45-.13c3.36,1.68,7.15,1,10.69,2,9.21,2.64,15.52,8.95,16.37,17.89s-3,15.69-10.73,20.3c-4.63,2.77-9.78,3.88-15,4.78a15.39,15.39,0,0,0-5.75,2C618.06,753.39,623,772.9,633.87,788c-10.87,0-20.72.06-30.57-.06-1.84,0-2.48-2-3.37-3.33-5.64-8.57-11.24-17.17-16.95-25.7-1.79-2.67-4.13-4.75-7.55-5.13-1.54-1.39-10.75-.45-10.57,4C565.26,767.73,565.07,777.71,565.13,787.67Zm-.18-58.48c0,2.67.08,5.33,0,8-.09,2.19.49,3.4,3,3.36,7.48-.12,15,.38,22.35-1.42,5.17-1.26,8.58-5.46,8.39-10.29-.2-5-3.64-8.73-9.06-9.75a69.44,69.44,0,0,0-13.41-.9C565,718.23,565,718.19,564.95,729.19Z" transform="translate(-235.52 -299.02)"/><path class="cls-6" d="M1248.06,705.89c9.71,1.2,18.38,4.35,21.87,14.51,4.16,12.12-2.59,23.6-15.87,27.56-4.63,1.38-9.42,2.21-14.4,3.84,22.34,1.64,27.38,21,38.25,36.28-6,0-11.08-.67-16,.13-11.91,1.95-19.65-2.36-24.62-13.37-2.49-5.52-6.66-10.27-10-15.43-3.86-6-9.78-6.74-16.14-6.61-2.69.06-2.25,1.93-2.25,3.51,0,9-.23,18,.09,27,.15,4.1-1.28,5-5.07,4.87-6.65-.28-13.32-.19-20,0-2.76.07-3.76-.71-3.75-3.61.14-26.47.14-52.94.18-79.4C1203,705.48,1225.55,704.17,1248.06,705.89ZM1209,729.26c0,2.66.08,5.32,0,8-.09,2.22.56,3.38,3.05,3.31,7.29-.21,14.61.44,21.8-1.37,5.51-1.38,9.37-5.56,9.19-10.18-.19-5.15-4.07-8.87-10-10a67.26,67.26,0,0,0-12.89-.83C1209,718.2,1209,718.19,1209,729.26Z" transform="translate(-235.52 -299.02)"/><path class="cls-3" d="M809.19,746.41c.14-20.52,11.77-35.64,31.7-40.28,15.73-3.67,31.55-3.78,47,1.75,19.42,7,26.92,23.2,25.83,42.32-1.5,26.36-22,37.5-42.28,39-10.5.76-20.85.54-31.08-2.13C820.39,781.84,809,767,809.19,746.41Zm76.19,2.76a37,37,0,0,0-.8-12.86c-3.24-12.08-11.57-17.12-26.42-16.3-10.09.56-18.22,7.34-19.89,17.06a49.39,49.39,0,0,0-.38,16.84c2.11,12.47,9.73,19.59,22.58,20.07,13.17.49,22-6.05,24.51-18.34A44.66,44.66,0,0,0,885.38,749.17Z" transform="translate(-235.52 -299.02)"/><path class="cls-3" d="M462,704c9.2-.42,18.21.55,26.84,4,13.25,5.28,22,14.34,24.4,28.84,2.12,12.87,1.1,25.15-7,35.95-7.58,10-18.47,14.43-30.37,16-12.88,1.67-25.77,1.25-38.41-2.64-14.51-4.47-26.72-18.31-27.6-36.74C408.36,718,432,705,454.55,704.06,457,704,459.55,704,462,704Zm-24,41.48c-.08,17.85,5.57,25.44,20.15,28.21,12.43,2.37,24.26-4.91,26.87-16.43a50.8,50.8,0,0,0,1-15.85c-.85-9.39-4.71-17.27-14.31-20.1-9.91-2.93-19.84-2.87-27.74,5.38C438.66,732.29,437.88,739.38,438,745.52Z" transform="translate(-235.52 -299.02)"/><path class="cls-4" d="M981.06,580c-2.15,3.57-5.8,5.42-9,7.75a154,154,0,0,1-76.35,29.41,159.43,159.43,0,0,1-84.6-13.79c-1.35-.62-2.58-1.48-3.87-2.22,28.82-18.88,60.87-26.89,94.9-28.16a319.19,319.19,0,0,1,59.05,3.21C967.85,577.24,974.7,577.47,981.06,580Z" transform="translate(-235.52 -299.02)"/><path class="cls-3" d="M1133.81,743c6.16,0,12.33.12,18.49-.05,2.85-.08,4.2.47,4.12,3.77-.22,9-.17,18,0,27,0,2.42-1.06,3.45-3,4.51-21.78,12.13-44.91,14.24-68.82,8.77-17.49-4-32.62-18.83-30.5-46.06,1.34-17.32,16.67-33.21,35.42-35.73,14.69-2,29.47-2.58,44,1a28.87,28.87,0,0,1,19.35,15.27c1.06,2.05,1.1,3.22-1.64,3.58-6.73.89-13.44,2-20.16,3a5.7,5.7,0,0,1-5.63-2.15c-6.72-7.56-17.66-9.62-28.4-5.7-8.62,3.15-14.56,11.53-14.81,21.61a77.08,77.08,0,0,0,.54,13.39c2.43,16.35,17.11,20.91,29.67,19.72A50.31,50.31,0,0,0,1129,770c2.19-1,3.22-2.13,3.25-4.75.08-9,.21-9-8.86-9h-3.5c-9.53,0-9.42,0-9.26-9.6,0-2.78.79-4.09,3.66-3.69a3.65,3.65,0,0,0,.5,0Z" transform="translate(-235.52 -299.02)"/><path class="cls-7" d="M981.06,580c-6.36-2.57-13.21-2.81-19.86-3.8A319.19,319.19,0,0,0,902.16,573c-34,1.27-66.09,9.28-94.9,28.16-15.72-7.14-29.16-17.49-41.34-29.58-.31-.31-.32-.92-.46-1.39,11.33-2.4,22.47-5.58,34-7.41,14-2.22,28-3.68,42.07-4.66,26.13-1.83,52.3-1.22,78.42.12,21.08,1.08,42.18,2.25,63.17,4.7,4.95.58,9.93.82,14.9,1.22C992.73,569.9,988,576.12,981.06,580Z" transform="translate(-235.52 -299.02)"/><path class="cls-5" d="M1377.23,717.84c-1.31,2.35-3.56,1.33-5.38,1.34-15,.09-29.92.16-44.88,0-3.57,0-5.32.64-4.79,4.59.62,4.54-2,10.45,1.13,13.34,2.85,2.61,8.59.68,13,.72,11,.1,21.94.14,32.91,0,3.07,0,4.34.86,3.84,3.93s1.1,6.55-1.07,9.52l-47.68-.17c-.8,0-1.69-.08-2,1-.06,5.49.06,11-.25,16.46-.2,3.47.88,4.55,4.43,4.5,15.64-.19,31.29,0,46.93-.16,3.66,0,4.83.83,4.77,4.65-.17,10.58,0,10.58-10.68,10.58q-34.45,0-68.9,0c-2.14,0-4.65.89-4.62-3.1.19-26.62.2-53.25.27-79.87,26.1,0,52.2.07,78.29-.06,3.4,0,4.82.75,4.47,4.36A70,70,0,0,0,1377.23,717.84Z" transform="translate(-235.52 -299.02)"/><path class="cls-6" d="M1545.7,703.91c9.5-.15,17.92.2,26,3.27,6.47,2.47,11.43,6.56,14.41,13,1.64,3.53,1.41,5.55-3.14,5.66-6.49.15-13,.42-19.45.9-2.16.16-2.41-1.28-3.11-2.49-4.58-8-17.64-11.43-25.69-6.73-2.74,1.6-4.71,3.93-4.48,7.22.27,3.79,3.08,6,6.36,6.85,6.71,1.76,13.55,3,20.32,4.49,7.41,1.62,14.69,3.48,21.62,6.78,17.41,8.28,16.32,28.89,2.09,38.72-10.39,7.18-22.31,8.1-34.27,8.09-8.9,0-17.88-.49-26.46-3.56-9.48-3.39-15.31-10.08-18.32-19.53-.75-2.34-.31-3.5,2.34-3.4a143.65,143.65,0,0,0,19.91-1c2.32-.23,3.71.15,4.66,3,4.4,13.12,23.12,14.83,31.92,8.09,6.33-4.85,4.91-13.24-2.81-16.72-5.29-2.39-11.05-3.24-16.71-4.41-8.42-1.73-16.79-3.65-24.48-7.75-6.89-3.68-11.76-8.9-11.78-17s4.78-13.92,11.68-17.78C1525.77,704.17,1536.21,703.71,1545.7,703.91Z" transform="translate(-235.52 -299.02)"/><path class="cls-6" d="M1468.42,726.15a38.59,38.59,0,0,0-4.91,0c-4.77.8-8.2.39-11.1-4.83-3.6-6.49-19.11-7.72-25-3-5.29,4.27-4.05,10.42,2.75,13s13.89,3,20.79,4.63c7.37,1.78,14.69,3.52,21.62,6.86,17.45,8.4,16.19,29,1.89,38.77-10.29,7-22,8-33.81,8-8.9,0-17.88-.48-26.49-3.5-9.5-3.33-15.45-9.83-18.48-19.34-.87-2.74-.29-3.74,2.49-3.65a138.44,138.44,0,0,0,19.43-1c2.54-.27,4,.18,5,3.2,4.28,12.92,23.82,14.83,32.41,7.38,5.25-4.56,4.35-11.73-2-15.38-5.53-3.2-11.85-4-18-5.21-8.6-1.77-17.14-3.71-24.95-7.94-6.7-3.62-11.51-8.92-11.55-16.78s4.49-13.64,11.26-17.57c9-5.21,18.82-5.92,28.85-5.94,9.8,0,19.59,0,28.81,4.13a23.59,23.59,0,0,1,13.1,13.55c1.16,3,.21,4-2.58,4.11Z" transform="translate(-235.52 -299.02)"/><path class="cls-3" d="M746.81,704c8-.35,15.91.29,23.5,3.1A36.93,36.93,0,0,1,789.86,724c1.33,2.3.81,3.11-1.55,3.53-6.16,1.12-12.32,2.32-18.48,3.44-1.81.33-2.92-.4-4.06-2-5.87-8.43-15.89-11.64-26.45-8.55-7.52,2.2-14.57,8.23-15.35,20.35-.39,6-.49,11.93,1.07,17.73,3,11.11,12.92,17,24.32,15.29,8.86-1.35,15-5.67,18.2-14.1.65-1.74,1.23-2.51,3.47-1.87,6,1.73,12.19,3,18.3,4.48,2.62.64,3.16,1.82,1.94,4.55-6,13.47-17,20.09-30.89,22a89.34,89.34,0,0,1-35.1-1.77c-20.09-5.32-31.69-23.39-29.79-45.21,2.28-26.17,21.89-36.59,43.33-37.8C741.47,703.91,744.14,704,746.81,704Z" transform="translate(-235.52 -299.02)"/><path class="cls-5" d="M392,705.13c-.06,4.48,1.53,10.16-.62,13.1-2.36,3.22-8.37,1-12.77,1.08q-15,.3-30,0c-3.34-.07-4.84.63-4.57,4.33.35,4.81.18,9.65.24,14.48,1.1,2,2.95.92,4.4.93,8.6.11,17.2.05,25.79.05,10.29,0,10.29,0,10.69,10.41a4.45,4.45,0,0,0,.07.49c-.26,3.21-2.74,2.26-4.52,2.27-10.82.07-21.65.15-32.47,0-3.24-.05-4.29.84-4.21,4.17.22,9.15,0,18.32.13,27.47.06,3.05-.48,4.43-4,4.29-7-.29-14-.16-21,0-2.39,0-3.13-.72-3.12-3.11q.18-40,.2-79.91Z" transform="translate(-235.52 -299.02)"/><path class="cls-8" d="M1025.07,521.43c-19.85-4.53-39.73-8.9-59.52-13.7-4.54-1.1-9.5-3-8.47-9.55a3.29,3.29,0,0,0-1.31-3.07c-6.71-5.68-8.63-13.49-9.68-21.69-.35-2.77-1.39-4.79-4.26-6.08-5.55-2.5-8.07-7.51-9.94-13.18,3.67.59,4.73.71,7.57,3.06,3.35,2.77,6.58,3.23,11.11,3.31,9.43.17,18.92.47,28.22,4.57,17.56,7.75,35.55,14.54,52.91,22.8a23.74,23.74,0,0,0,3.31,1A133.5,133.5,0,0,1,1025.07,521.43Z" transform="translate(-235.52 -299.02)"/><path class="cls-1" d="M575.43,753.83c-9.27.69-9.27.69-9.3,10.17,0,6.15,0,12.29,0,18.44,0,1.78.47,3.69-1,5.23-.06-10,.13-19.94-.28-29.88C564.67,753.38,573.88,752.43,575.43,753.83Z" transform="translate(-235.52 -299.02)"/><path class="cls-8" d="M914.1,497.38a42.82,42.82,0,0,0-12.24.43,15.16,15.16,0,0,1-9.58-1.37c-5.8-2.65-12.36-2.08-18.65-2.35-5-.22-5.59-.9-2.95-4.89,1.8-2.72,1.61-5.21.93-8A71.77,71.77,0,0,1,869.1,463c0-2.89,1.23-4.26,4.22-5.63,3.87-1.77,6.92-3.51,10.42,0A8.61,8.61,0,0,1,886,460c4,10.89,11.83,18.38,21.61,23.85C913.19,487,915.14,491.24,914.1,497.38Z" transform="translate(-235.52 -299.02)"/><path class="cls-8" d="M922.15,489.64c.16-4.07.86-8.24-3.61-10.88-.84-.49-1.08-2-1.62-3-.71-1.37-1.41-3-.28-4.17s2.35.46,3.59.64c2.6.36,5.12,1.24,7.69,1.81a12.1,12.1,0,0,1,8.35,5.7,204.18,204.18,0,0,0,11.52,18.51c.79,1.09,2,2.7.94,4.09s-2.75.6-4.21.45c-5.43-.57-10.87-1.68-16.28-1.53-4.54.13-5.86-1.87-6.08-5.64C922.06,493.63,922.15,491.63,922.15,489.64Z" transform="translate(-235.52 -299.02)"/><path class="cls-8" d="M861.48,485.77c-.54,2.06.69,4.86-1.62,6-2.84,1.35-5.82-.32-8.7-.91a1.36,1.36,0,0,1-.66-1.15c1.42-7.12-1.46-14.19-.24-21.29a36.84,36.84,0,0,1,1-3.84c.55-1.94,2.38-1.48,3.71-1.91A1.46,1.46,0,0,1,857.1,464C858.3,471.29,861,478.32,861.48,485.77Z" transform="translate(-235.52 -299.02)"/></svg>